<?xml version="1.0" encoding="UTF-8"?>
<svg id="Layer_1" data-name="Layer 1" xmlns="http://www.w3.org/2000/svg" viewBox="0 0 1080 1080">
  <g>
    <path fill="#393532" d="M262.38,722.53h-93.4c-2.39,0-4.96-.28-7.72-.85-2.76-.56-5.48-1.44-8.17-2.64-2.69-1.2-5.26-2.74-7.72-4.63-2.46-1.89-4.63-4.18-6.52-6.87-1.89-2.69-3.4-5.81-4.53-9.36-1.13-3.55-1.69-7.55-1.69-12v-70.1c0-2.39.28-4.96.85-7.72.56-2.75,1.44-5.48,2.64-8.16,1.2-2.69,2.75-5.26,4.68-7.72,1.92-2.45,4.23-4.63,6.92-6.52,2.69-1.89,5.79-3.4,9.31-4.53,3.52-1.13,7.5-1.69,11.95-1.69h93.4v25.89h-93.4c-3.39,0-5.97.9-7.77,2.69s-2.69,4.45-2.69,7.97v69.9c0,3.32.91,5.89,2.74,7.72,1.82,1.83,4.4,2.74,7.72,2.74h93.4v25.89Z"/>
    <path fill="#393532" d="M423.54,587.71c-.66-1.59-1.59-2.99-2.79-4.18-1.2-1.19-2.59-2.12-4.18-2.79-1.59-.66-3.29-1-5.08-1h-58.35c-10.29,0-19.78,1.76-28.48,5.28-8.7,3.52-16.23,8.43-22.6,14.74-6.37,6.31-11.35,13.84-14.94,22.6-3.58,8.76-5.38,18.35-5.38,28.78v71.39h25.89v-71.39c0-7.23,1.01-13.39,3.04-18.47,2.02-5.08,4.6-9.31,7.72-12.7,3.12-3.38,6.54-6.04,10.26-7.97,3.72-1.92,7.25-3.35,10.6-4.28,3.35-.93,6.31-1.51,8.86-1.74,2.56-.23,4.23-.35,5.03-.35h45.5v116.89h25.89v-129.74c0-1.79-.33-3.48-1-5.08Z"/>
    <path fill="#393532" d="M587.35,662.79c0,8.7-1.51,16.69-4.53,24-3.02,7.3-7.19,13.59-12.5,18.87-5.31,5.28-11.62,9.41-18.92,12.4-7.3,2.99-15.23,4.48-23.8,4.48h-69.9c-1.86,0-3.58-.33-5.18-1-1.59-.66-2.97-1.58-4.13-2.74-1.16-1.16-2.08-2.54-2.74-4.13-.66-1.59-1-3.32-1-5.18v-116.69c0-1.79.33-3.48,1-5.08.66-1.59,1.58-2.99,2.74-4.18,1.16-1.2,2.54-2.12,4.13-2.79,1.59-.66,3.32-1,5.18-1h69.9c8.56,0,16.49,1.49,23.8,4.48,7.3,2.99,13.61,7.12,18.92,12.4,5.31,5.28,9.47,11.58,12.5,18.92,3.02,7.33,4.53,15.32,4.53,23.95v23.3ZM561.46,639.49c0-5.04-.81-9.66-2.44-13.84-1.63-4.18-3.93-7.75-6.92-10.7-2.99-2.95-6.56-5.24-10.7-6.87-4.15-1.63-8.75-2.44-13.79-2.44h-57.05v91.01h57.05c5.04,0,9.64-.81,13.79-2.44,4.15-1.63,7.72-3.92,10.7-6.87,2.99-2.95,5.29-6.5,6.92-10.65,1.63-4.15,2.44-8.78,2.44-13.89v-23.3Z"/>
    <path fill="#393532" d="M631.52,722.53h-25.89v-142.78h25.89v142.78Z"/>
    <path fill="#dd0b0e" d="M229.68,675.17v-25.89h142.78v25.89h-142.78Z"/>
    <path fill="#393532" d="M936.59,722.53h-93.4c-3.59,0-7.5-.63-11.75-1.89-4.25-1.26-8.18-3.34-11.8-6.22-3.62-2.89-6.64-6.64-9.06-11.25-2.42-4.61-3.63-10.27-3.63-16.98v-93.4c0-1.79.33-3.48,1-5.08.66-1.59,1.58-2.99,2.74-4.18,1.16-1.2,2.54-2.12,4.13-2.79,1.59-.66,3.32-1,5.18-1h116.59v25.89h-103.75v80.55c0,3.39.9,5.97,2.69,7.77,1.79,1.79,4.41,2.69,7.87,2.69h93.2v25.89Z"/>
    <rect fill="#dd0b0e" x="844.19" y="638.09" width="81.75" height="26.09"/>
    <rect fill="#dd0b0e" x="696.98" y="638.09" width="81.75" height="26.09"/>
    <path fill="#393532" d="M672.05,579.75c-1.86,0-3.58.33-5.18,1-1.59.66-2.97,1.59-4.13,2.79-1.16,1.19-2.07,2.59-2.74,4.18-.66,1.59-1,3.28-1,5.08v129.74h25.89v-116.89h103.75v-25.89h-116.59Z"/>
  </g>
  <g>
    <path fill="#dd0b0e" d="M598.56,497.08c37.57-15.34,68.38-43.78,86.78-79.65h-86.78v79.65Z"/>
    <path fill="#dd0b0e" d="M701.78,367.26c1.41-8.79,2.17-17.8,2.17-26.99,0-8.63-.66-17.1-1.9-25.39h-206.02v190.24c12.4,2.89,25.31,4.47,38.59,4.47,4.74,0,9.42-.24,14.06-.63v-141.71h153.11Z"/>
    <path fill="#dd0b0e" d="M686.15,264.73c-27.77-55.59-85.18-93.79-151.54-93.79-93.52,0-169.33,75.81-169.33,169.33,0,61.08,32.35,114.6,80.85,144.38v-219.93h240.02Z"/>
    <path fill="#fffefc" d="M702.04,314.89c-2.67-17.78-8.14-34.64-15.89-50.16h-240.02v219.93c15.2,9.34,32,16.31,49.89,20.48v-190.24h206.02Z"/>
    <path fill="#fffefc" d="M548.67,367.26v141.71c17.52-1.44,34.28-5.53,49.89-11.9v-79.65h86.78c7.95-15.49,13.59-32.35,16.44-50.16h-153.11Z"/>
  </g>
  <g>
    <path fill="#dd0b0e" d="M731.26,835.05l14.87-59.49h-14.87l3.71-14.87h48.35l-3.73,14.87h-14.87l-14.87,59.49h-18.59Z"/>
    <path fill="#dd0b0e" d="M777.73,835.05c-1.86-.1-3.46-.83-4.8-2.17-1.44-1.45-2.16-3.2-2.16-5.26,0-1,.17-1.93.52-2.78h-.05l14.39-57.65h.02c.02-.06.04-.11.05-.16.22-1.6.92-2.99,2.1-4.17,1.46-1.45,3.21-2.17,5.26-2.17h33v.02c1.86.1,3.46.82,4.79,2.16,1.46,1.46,2.19,3.21,2.19,5.26,0,1-.17,1.93-.52,2.79h.05l-14.42,57.63h-.02c-.01.06-.03.12-.05.17-.22,1.59-.92,2.97-2.1,4.16-1.45,1.45-3.2,2.17-5.26,2.17h-33ZM802.36,820.18l11.16-44.62h-12.09l-11.16,44.62h12.09Z"/>
    <path fill="#dd0b0e" d="M833.03,835.05c-1.86-.1-3.46-.83-4.8-2.17-1.44-1.45-2.16-3.2-2.16-5.26,0-1,.17-1.93.52-2.78h-.05l15.78-63.22v-.93h18.13l-14.89,59.49h12.09l14.87-59.49h17.66v.93l-16.73,66.93h-.02c-.01.06-.03.12-.05.17-.22,1.59-.92,2.97-2.1,4.16-1.45,1.45-3.2,2.17-5.26,2.17h-33Z"/>
    <path fill="#dd0b0e" d="M882.76,835.05l18.58-74.36h39.05v.02c1.86.1,3.46.82,4.8,2.16,1.45,1.46,2.17,3.21,2.17,5.26,0,1-.17,1.93-.52,2.79h.05l-5.11,20.44h-.02c-.16.55-.36,1.07-.6,1.55-.26.51-.54.93-.83,1.26-.32.54-.72,1.05-1.19,1.52-1.46,1.46-3.21,2.19-5.26,2.19h-2.79c1.86.1,3.46.83,4.8,2.17,1.45,1.45,2.17,3.2,2.17,5.26,0,1-.17,1.93-.52,2.79h.05l-6.5,26.03v.91h-18.13l7.21-28.81c-.08-.14-.18-.27-.31-.4-.37-.36-.81-.53-1.33-.53h-10.21l-7.45,29.74h-18.11ZM921.33,790.45c1.02,0,1.9-.36,2.64-1.09.25-.26.47-.55.64-.84l3-12.01c-.08-.14-.18-.27-.31-.4-.37-.37-.8-.55-1.31-.55h-10.23l-3.73,14.89h9.3Z"/>
  </g>
</svg>
