<?xml version="1.0" encoding="UTF-8"?>
<svg id="Layer_1" data-name="Layer 1" xmlns="http://www.w3.org/2000/svg" viewBox="0 0 2198 729.97">
  <defs>
    <style>
      .cls-1 {
        fill: #393532;
      }

      .cls-1, .cls-2 {
        stroke-width: 0px;
      }

      .cls-2 {
        fill: #dd0b0e;
      }
    </style>
  </defs>
  <g>
    <path class="cls-1" d="M407.81,418.49h-232.52c-5.95,0-12.36-.7-19.21-2.11-6.86-1.4-13.64-3.6-20.33-6.57-6.69-2.98-13.1-6.82-19.21-11.53-6.12-4.71-11.53-10.41-16.24-17.1-4.71-6.69-8.47-14.46-11.28-23.3-2.81-8.84-4.21-18.8-4.21-29.87v-174.52c0-5.95.7-12.35,2.11-19.21,1.4-6.86,3.6-13.63,6.57-20.33,2.98-6.69,6.86-13.1,11.65-19.21,4.79-6.11,10.54-11.53,17.23-16.24,6.69-4.71,14.42-8.47,23.18-11.28,8.76-2.81,18.67-4.21,29.75-4.21h232.52v64.45h-232.52c-8.43,0-14.87,2.23-19.34,6.69-4.46,4.46-6.69,11.08-6.69,19.83v174.02c0,8.27,2.27,14.67,6.82,19.21,4.54,4.55,10.94,6.82,19.21,6.82h232.52v64.45Z"/>
    <path class="cls-1" d="M809.04,82.84c-1.65-3.97-3.97-7.44-6.94-10.41-2.98-2.97-6.44-5.29-10.41-6.94-3.97-1.65-8.18-2.48-12.64-2.48h-145.27c-25.62,0-49.25,4.38-70.9,13.14-21.65,8.76-40.41,20.99-56.27,36.69-15.87,15.7-28.26,34.46-37.19,56.27-8.92,21.81-13.38,45.7-13.38,71.64v177.74h64.45v-177.74c0-18.01,2.52-33.34,7.56-45.98,5.04-12.64,11.44-23.18,19.21-31.61,7.77-8.43,16.28-15.04,25.53-19.83,9.25-4.79,18.06-8.34,26.4-10.66,8.34-2.31,15.7-3.76,22.06-4.34,6.36-.58,10.54-.87,12.52-.87h113.29v291.03h64.45V95.49c0-4.46-.83-8.68-2.48-12.64Z"/>
    <path class="cls-1" d="M1216.87,269.76c0,21.65-3.76,41.56-11.28,59.74-7.52,18.18-17.89,33.84-31.11,46.98-13.22,13.14-28.92,23.43-47.1,30.86-18.18,7.44-37.93,11.15-59.25,11.15h-174.02c-4.63,0-8.92-.83-12.89-2.48-3.97-1.65-7.4-3.92-10.29-6.82-2.89-2.89-5.17-6.32-6.82-10.29-1.65-3.97-2.48-8.26-2.48-12.89V95.49c0-4.46.82-8.68,2.48-12.64,1.65-3.97,3.92-7.44,6.82-10.41,2.89-2.98,6.32-5.29,10.29-6.94,3.97-1.65,8.26-2.48,12.89-2.48h174.02c21.32,0,41.07,3.72,59.25,11.15,18.18,7.44,33.88,17.73,47.1,30.86,13.22,13.14,23.59,28.84,31.11,47.1,7.52,18.26,11.28,38.14,11.28,59.62v58.01ZM1152.42,211.75c0-12.56-2.03-24.05-6.07-34.46-4.05-10.41-9.79-19.29-17.23-26.65-7.44-7.35-16.32-13.05-26.65-17.1-10.33-4.05-21.78-6.08-34.33-6.08h-142.05v226.58h142.05c12.56,0,24-2.02,34.33-6.07,10.33-4.05,19.21-9.75,26.65-17.1,7.44-7.35,13.18-16.2,17.23-26.53,4.05-10.33,6.07-21.85,6.07-34.58v-58.01Z"/>
    <path class="cls-1" d="M1326.85,418.49h-64.45V63.01h64.45v355.48Z"/>
    <path class="cls-2" d="M326.39,300.59v-64.45h355.48v64.45h-355.48Z"/>
    <path class="cls-1" d="M2086.38,418.49h-232.52c-8.93,0-18.68-1.57-29.25-4.71-10.58-3.14-20.37-8.31-29.38-15.5-9.01-7.19-16.53-16.52-22.56-28.01-6.03-11.49-9.05-25.57-9.05-42.27V95.49c0-4.46.82-8.68,2.48-12.64,1.65-3.97,3.92-7.44,6.82-10.41,2.89-2.98,6.32-5.29,10.29-6.94,3.97-1.65,8.26-2.48,12.89-2.48h290.28v64.45h-258.31v200.55c0,8.43,2.23,14.87,6.69,19.34,4.46,4.46,10.99,6.69,19.58,6.69h232.03v64.45Z"/>
    <rect class="cls-2" x="1856.35" y="208.28" width="203.52" height="64.95"/>
    <rect class="cls-2" x="1489.84" y="208.28" width="203.52" height="64.95"/>
    <path class="cls-1" d="M1427.77,63.01c-4.63,0-8.92.83-12.89,2.48-3.97,1.65-7.4,3.97-10.29,6.94-2.89,2.97-5.17,6.45-6.82,10.41-1.65,3.97-2.48,8.18-2.48,12.64v323.01h64.45V127.46h258.31V63.01h-290.28Z"/>
  </g>
  <g>
    <path class="cls-2" d="M1575.19,666.95l37.02-148.11h-37.02l9.23-37.02h120.37l-9.28,37.02h-37.01l-37.02,148.11h-46.29Z"/>
    <path class="cls-2" d="M1690.88,666.95c-4.64-.26-8.62-2.06-11.94-5.41-3.58-3.61-5.37-7.97-5.37-13.1,0-2.49.43-4.79,1.29-6.91h-.13l35.82-143.52h.04c.05-.15.1-.27.13-.39.54-3.98,2.29-7.45,5.23-10.39,3.64-3.6,8.01-5.41,13.1-5.41h82.15v.04c4.63.26,8.61,2.04,11.94,5.37,3.64,3.64,5.46,8,5.46,13.1,0,2.49-.43,4.81-1.29,6.95h.13l-35.9,143.48h-.04c-.03.14-.07.29-.13.43-.54,3.95-2.29,7.4-5.23,10.35-3.61,3.6-7.97,5.41-13.1,5.41h-82.15ZM1752.2,629.94l27.78-111.1h-30.1l-27.79,111.1h30.11Z"/>
    <path class="cls-2" d="M1828.56,666.95c-4.64-.26-8.62-2.06-11.95-5.41-3.57-3.61-5.36-7.97-5.36-13.1,0-2.49.43-4.79,1.28-6.91h-.13l39.3-157.39v-2.32h45.13l-37.06,148.12h30.1l37.02-148.12h43.97v2.32l-41.66,166.62h-.04c-.03.14-.08.29-.13.43-.55,3.95-2.29,7.4-5.24,10.35-3.6,3.6-7.97,5.41-13.1,5.41h-82.15Z"/>
    <path class="cls-2" d="M1952.37,666.95l46.25-185.13h97.22v.04c4.64.26,8.62,2.04,11.94,5.37,3.62,3.64,5.42,8,5.42,13.1,0,2.49-.43,4.81-1.29,6.95h.12l-12.71,50.89h-.04c-.4,1.38-.9,2.67-1.51,3.86-.66,1.26-1.34,2.31-2.06,3.14-.8,1.34-1.79,2.6-2.96,3.78-3.64,3.64-8,5.46-13.1,5.46h-6.96c4.64.25,8.62,2.06,11.94,5.41,3.61,3.6,5.41,7.97,5.41,13.1,0,2.49-.43,4.81-1.29,6.95h.12l-16.19,64.8v2.28h-45.13l17.95-71.71c-.2-.34-.46-.67-.77-.99-.92-.88-2.02-1.33-3.31-1.33h-25.42l-18.55,74.03h-45.09ZM2048.39,555.9c2.55,0,4.74-.9,6.57-2.7.63-.66,1.16-1.36,1.59-2.1l7.47-29.89c-.19-.35-.45-.67-.77-.99-.91-.91-2-1.37-3.26-1.37h-25.47l-9.27,37.06h23.15Z"/>
  </g>
</svg>