<?xml version="1.0" encoding="UTF-8"?>
<svg id="Layer_1" data-name="Layer 1" xmlns="http://www.w3.org/2000/svg" viewBox="0 0 1206 1236">
  <defs>
    <style>
      .cls-1 {
        fill: #dd0b0e;
      }

      .cls-1, .cls-2 {
        stroke-width: 0px;
      }

      .cls-2 {
        fill: #fffefc;
      }
    </style>
  </defs>
  <path class="cls-1" d="M807.15,1118.04c119.82-48.92,218.06-139.61,276.74-254.02h-276.74v254.02Z"/>
  <path class="cls-1" d="M1136.34,704.06c4.49-28.04,6.91-56.76,6.91-86.06,0-27.52-2.09-54.55-6.06-80.96H480.17v606.7c39.55,9.22,80.71,14.26,123.07,14.26,15.11,0,30.03-.78,44.82-2v-451.94h488.27Z"/>
  <path class="cls-1" d="M1086.51,377.09c-88.55-177.27-271.63-299.09-483.27-299.09-298.23,0-540,241.77-540,540,0,194.8,103.18,365.47,257.84,460.44V377.09h765.42Z"/>
  <path class="cls-2" d="M1137.18,537.04c-8.53-56.71-25.95-110.47-50.68-159.96H321.08v701.36c48.49,29.78,102.07,52,159.09,65.3v-606.7h657.01Z"/>
  <path class="cls-2" d="M648.07,704.06v451.94c55.88-4.6,109.33-17.65,159.09-37.96v-254.02h276.74c25.34-49.41,43.35-103.18,52.44-159.96h-488.27Z"/>
</svg>