<?xml version="1.0" encoding="UTF-8"?>
<svg id="Layer_1" data-name="Layer 1" xmlns="http://www.w3.org/2000/svg" viewBox="0 0 2150 739.97">
  <defs>
    <style>
      .cls-1 {
        fill: #393532;
      }

      .cls-1, .cls-2, .cls-3 {
        stroke-width: 0px;
      }

      .cls-2 {
        fill: #dd0b0e;
      }

      .cls-3 {
        fill: #fffefc;
      }
    </style>
  </defs>
  <g>
    <path class="cls-1" d="M893.8,456.78h-163.02c-4.17,0-8.66-.49-13.47-1.48-4.81-.98-9.56-2.52-14.25-4.61-4.69-2.09-9.18-4.78-13.47-8.08-4.29-3.3-8.08-7.3-11.38-11.99-3.3-4.69-5.94-10.14-7.91-16.34-1.97-6.2-2.95-13.18-2.95-20.94v-122.35c0-4.17.49-8.66,1.48-13.47.98-4.81,2.52-9.56,4.61-14.25,2.09-4.69,4.81-9.18,8.17-13.47,3.36-4.28,7.39-8.08,12.08-11.38,4.69-3.3,10.11-5.94,16.25-7.91,6.14-1.97,13.09-2.95,20.85-2.95h163.02v45.18h-163.02c-5.91,0-10.43,1.57-13.56,4.69-3.13,3.13-4.69,7.76-4.69,13.9v122c0,5.8,1.59,10.28,4.78,13.47,3.18,3.19,7.67,4.78,13.47,4.78h163.02v45.19Z"/>
    <path class="cls-1" d="M1175.09,221.47c-1.16-2.78-2.78-5.21-4.87-7.3-2.09-2.09-4.52-3.71-7.3-4.87-2.78-1.16-5.74-1.74-8.86-1.74h-101.84c-17.96,0-34.53,3.07-49.7,9.21-15.18,6.14-28.33,14.71-39.45,25.72-11.12,11.01-19.81,24.16-26.07,39.45-6.26,15.29-9.38,32.04-9.38,50.23v124.61h45.18v-124.61c0-12.63,1.77-23.38,5.3-32.24,3.53-8.86,8.02-16.25,13.47-22.16,5.44-5.91,11.41-10.54,17.9-13.9,6.49-3.36,12.66-5.85,18.51-7.47,5.85-1.62,11.01-2.63,15.47-3.04,4.46-.41,7.39-.61,8.78-.61h79.42v204.03h45.19v-226.45c0-3.13-.58-6.08-1.74-8.86Z"/>
    <path class="cls-1" d="M1461.01,352.51c0,15.18-2.64,29.14-7.91,41.88-5.27,12.75-12.54,23.72-21.81,32.93-9.27,9.21-20.28,16.42-33.02,21.64-12.75,5.21-26.59,7.82-41.54,7.82h-122c-3.24,0-6.26-.58-9.04-1.74-2.78-1.16-5.19-2.75-7.21-4.78-2.03-2.03-3.62-4.43-4.78-7.21-1.16-2.78-1.74-5.79-1.74-9.04v-203.68c0-3.13.58-6.08,1.74-8.86,1.16-2.78,2.75-5.21,4.78-7.3,2.03-2.09,4.43-3.71,7.21-4.87,2.78-1.16,5.79-1.74,9.04-1.74h122c14.95,0,28.79,2.61,41.54,7.82,12.74,5.21,23.75,12.43,33.02,21.64,9.27,9.21,16.54,20.22,21.81,33.02,5.27,12.8,7.91,26.74,7.91,41.8v40.67ZM1415.82,311.84c0-8.8-1.42-16.86-4.26-24.16-2.84-7.3-6.86-13.53-12.08-18.68-5.21-5.15-11.44-9.15-18.68-11.99-7.24-2.84-15.27-4.26-24.07-4.26h-99.58v158.85h99.58c8.8,0,16.83-1.42,24.07-4.26,7.24-2.84,13.47-6.84,18.68-11.99,5.21-5.15,9.24-11.35,12.08-18.6,2.84-7.24,4.26-15.32,4.26-24.24v-40.67Z"/>
    <path class="cls-1" d="M1538.11,456.78h-45.19v-249.22h45.19v249.22Z"/>
    <path class="cls-2" d="M836.72,374.12v-45.19h249.22v45.19h-249.22Z"/>
    <path class="cls-1" d="M2070.59,456.78h-163.02c-6.26,0-13.1-1.1-20.51-3.3-7.42-2.2-14.28-5.82-20.6-10.86-6.31-5.04-11.59-11.58-15.81-19.64-4.23-8.05-6.34-17.93-6.34-29.63v-163.02c0-3.13.58-6.08,1.74-8.86,1.16-2.78,2.75-5.21,4.78-7.3,2.03-2.09,4.43-3.71,7.21-4.87,2.78-1.16,5.79-1.74,9.04-1.74h203.51v45.18h-181.09v140.6c0,5.91,1.57,10.43,4.69,13.56,3.13,3.13,7.7,4.69,13.73,4.69h162.67v45.19Z"/>
    <rect class="cls-2" x="1909.32" y="309.4" width="142.68" height="45.53"/>
    <rect class="cls-2" x="1652.37" y="309.4" width="142.68" height="45.53"/>
    <path class="cls-1" d="M1608.86,207.56c-3.25,0-6.26.58-9.04,1.74-2.78,1.16-5.19,2.78-7.21,4.87-2.03,2.08-3.62,4.52-4.78,7.3-1.16,2.78-1.74,5.73-1.74,8.86v226.45h45.18v-204.03h181.09v-45.18h-203.51Z"/>
  </g>
  <g>
    <path class="cls-2" d="M402.39,548.98c55.05-22.47,100.19-64.14,127.15-116.71h-127.15v116.71Z"/>
    <path class="cls-2" d="M553.64,358.79c2.06-12.88,3.17-26.08,3.17-39.54,0-12.64-.96-25.06-2.78-37.2H252.17v278.74c18.17,4.24,37.08,6.55,56.54,6.55,6.94,0,13.8-.36,20.59-.92v-207.64h224.33Z"/>
    <path class="cls-2" d="M530.74,208.56c-40.68-81.45-124.8-137.41-222.03-137.41-137.02,0-248.1,111.08-248.1,248.1,0,89.5,47.41,167.91,118.46,211.55V208.56h351.67Z"/>
    <path class="cls-3" d="M554.02,282.05c-3.92-26.05-11.92-50.75-23.28-73.49H179.08v322.23c22.28,13.68,46.89,23.89,73.09,30v-278.74h301.86Z"/>
    <path class="cls-3" d="M329.3,358.79v207.64c25.67-2.11,50.23-8.11,73.09-17.44v-116.71h127.15c11.64-22.7,19.92-47.4,24.09-73.49h-224.33Z"/>
  </g>
  <g>
    <path class="cls-2" d="M1712.21,669.97l25.95-103.84h-25.95l6.47-25.95h84.39l-6.5,25.95h-25.95l-25.96,103.84h-32.45Z"/>
    <path class="cls-2" d="M1793.31,669.97c-3.25-.18-6.04-1.44-8.37-3.79-2.51-2.53-3.76-5.59-3.76-9.18,0-1.75.3-3.36.9-4.85h-.09l25.11-100.62h.03c.04-.1.07-.19.09-.27.38-2.79,1.6-5.22,3.67-7.29,2.55-2.53,5.61-3.79,9.18-3.79h57.6v.03c3.25.18,6.04,1.43,8.37,3.76,2.55,2.55,3.82,5.61,3.82,9.18,0,1.74-.3,3.37-.9,4.88h.09l-25.17,100.59h-.03c-.02.1-.05.2-.09.3-.38,2.77-1.6,5.19-3.67,7.26-2.53,2.53-5.59,3.79-9.18,3.79h-57.6ZM1836.31,644.02l19.48-77.89h-21.1l-19.48,77.89h21.11Z"/>
    <path class="cls-2" d="M1889.84,669.97c-3.25-.18-6.04-1.44-8.37-3.79-2.5-2.53-3.76-5.59-3.76-9.18,0-1.75.3-3.36.9-4.85h-.09l27.55-110.34v-1.63h31.64l-25.98,103.84h21.1l25.96-103.84h30.83v1.63l-29.21,116.81h-.03c-.02.1-.05.2-.09.3-.39,2.77-1.61,5.19-3.68,7.26-2.53,2.53-5.59,3.79-9.18,3.79h-57.59Z"/>
    <path class="cls-2" d="M1976.64,669.97l32.43-129.79h68.16v.03c3.25.18,6.04,1.43,8.37,3.76,2.53,2.55,3.8,5.61,3.8,9.18,0,1.74-.3,3.37-.9,4.88h.09l-8.91,35.67h-.03c-.28.96-.63,1.87-1.06,2.71-.46.89-.94,1.62-1.44,2.2-.56.94-1.26,1.82-2.08,2.65-2.55,2.55-5.61,3.82-9.18,3.82h-4.88c3.25.18,6.04,1.44,8.37,3.79,2.53,2.53,3.79,5.59,3.79,9.18,0,1.75-.3,3.37-.9,4.88h.09l-11.35,45.43v1.6h-31.64l12.59-50.28c-.14-.24-.32-.47-.54-.69-.64-.62-1.41-.93-2.32-.93h-17.82l-13,51.9h-31.61ZM2043.96,592.11c1.79,0,3.32-.63,4.6-1.9.44-.46.81-.95,1.12-1.48l5.24-20.95c-.14-.24-.32-.47-.54-.7-.64-.64-1.4-.96-2.29-.96h-17.85l-6.5,25.98h16.23Z"/>
  </g>
</svg>